<svg id="Component_1_1" data-name="Component 1 – 1" xmlns="http://www.w3.org/2000/svg" width="136.667" height="68.211" viewBox="0 0 136.667 68.211">
  <g id="Group_186" data-name="Group 186">
    <path id="Path_459" data-name="Path 459" d="M341.656,2173.6l-.207-.052c-.124-.032-3.118-.825-12.293-6.349-9.434-5.678-10.32-13.873-10.352-14.219l-.1-.95V2105.39h45.94l-.006,46.732-.094.871c-.031.339-.92,8.528-10.353,14.206-9.174,5.524-12.2,6.317-12.329,6.349Z" transform="translate(-318.705 -2105.39)" fill="#0070bf"/>
    <path id="Path_460" data-name="Path 460" d="M321.706,2154.029c.01.084.875,7.723,9.542,12.941,7.558,4.549,10.818,5.815,11.632,6.1.817-.281,4.1-1.541,11.661-6.1,8.668-5.218,9.534-12.856,9.543-12.934l.09-.83v-44.9H321.617Z" transform="translate(-319.926 -2106.611)" fill="#fff"/>
    <g id="Group_185" data-name="Group 185" transform="translate(7.868 12.077)">
      <path id="Path_461" data-name="Path 461" d="M333.2,2174.009h1.529v5.411h.052c.318-.439.632-.834.932-1.2l3.621-4.207h1.9l-4.289,4.76,4.623,6.463h-1.809l-3.9-5.514-1.126,1.233v4.281H333.2Z" transform="translate(-332.652 -2146.234)" fill="#161615"/>
      <rect id="Rectangle_847" data-name="Rectangle 847" width="1.53" height="11.217" transform="translate(10.078 27.776)" fill="#161615"/>
      <path id="Path_462" data-name="Path 462" d="M356.842,2174.081a18.508,18.508,0,0,1,2.935-.217,5.051,5.051,0,0,1,3.321.933,2.941,2.941,0,0,1,1.037,2.348,3.216,3.216,0,0,1-.914,2.395,5.071,5.071,0,0,1-3.619,1.232,5.5,5.5,0,0,1-1.23-.1v4.493h-1.529Zm1.529,5.408a5.352,5.352,0,0,0,1.266.116c1.846,0,2.969-.849,2.969-2.4,0-1.481-1.107-2.2-2.8-2.2a6.921,6.921,0,0,0-1.439.115Z" transform="translate(-342.561 -2146.173)" fill="#161615"/>
      <path id="Path_463" data-name="Path 463" d="M372.3,2183.329a5.67,5.67,0,0,0,2.744.732c1.562,0,2.477-.784,2.477-1.912,0-1.051-.634-1.647-2.233-2.23-1.934-.648-3.127-1.6-3.127-3.18,0-1.749,1.531-3.049,3.831-3.049a5.639,5.639,0,0,1,2.621.552l-.423,1.18a4.962,4.962,0,0,0-2.249-.531c-1.617,0-2.232.914-2.232,1.683,0,1.047.719,1.562,2.355,2.164,2,.732,3.021,1.65,3.021,3.293,0,1.731-1.35,3.233-4.145,3.233a6.418,6.418,0,0,1-3.024-.716Z" transform="translate(-348.879 -2146.1)" fill="#161615"/>
      <path id="Path_464" data-name="Path 464" d="M381.722,2132.695a1.726,1.726,0,1,1-1.727-1.668,1.7,1.7,0,0,1,1.727,1.668" transform="translate(-351.545 -2128.214)" fill="#0070bf" fill-rule="evenodd"/>
      <path id="Path_465" data-name="Path 465" d="M358.874,2127.846a1.729,1.729,0,1,1-1.727-1.662,1.7,1.7,0,0,1,1.727,1.662" transform="translate(-341.964 -2126.184)" fill="#0070bf" fill-rule="evenodd"/>
      <path id="Path_466" data-name="Path 466" d="M335.7,2132.532a1.728,1.728,0,1,1-1.729-1.662,1.7,1.7,0,0,1,1.729,1.662" transform="translate(-332.252 -2128.149)" fill="#0070bf" fill-rule="evenodd"/>
      <path id="Path_467" data-name="Path 467" d="M342.6,2153.646l6.872,3.458a1.268,1.268,0,0,0-.1-.1,10.751,10.751,0,0,0-.847-.745c-.153-.138-.316-.251-.477-.37s-.339-.239-.515-.351-.357-.225-.537-.327-.374-.2-.564-.305c-.38-.194-.775-.37-1.17-.527-.194-.073-.394-.137-.591-.218-.2-.055-.4-.116-.588-.181-.393-.1-.775-.2-1.145-.269-.114-.03-.232-.045-.343-.064" transform="translate(-336.591 -2137.697)" fill="#0070bf" fill-rule="evenodd"/>
      <path id="Path_468" data-name="Path 468" d="M346.2,2151.518c.425.146.852.3,1.264.484.209.093.415.185.617.29s.4.21.6.314.383.234.573.348.365.235.533.365c.351.247.67.507.964.753.3.261.563.515.8.761.194.2.368.4.525.579-.06-.161-.125-.321-.2-.475-.107-.238-.212-.471-.34-.709-.12-.221-.251-.446-.39-.669s-.281-.435-.433-.648-.315-.414-.481-.62-.346-.386-.524-.58l-.276-.282-.28-.265c-.2-.173-.39-.35-.6-.516l-.31-.245-.315-.23c-.212-.153-.432-.3-.652-.439s-.447-.281-.681-.4l-.343-.189-.358-.174c-.23-.125-.479-.23-.718-.338s-.49-.194-.734-.294c-.059-.02-.122-.045-.18-.062l.883,2.957c.137.028.277.064.418.1l.633.189" transform="translate(-337.289 -2135.446)" fill="#0070bf" fill-rule="evenodd"/>
      <path id="Path_469" data-name="Path 469" d="M339.317,2144.573c.17.008.346.033.53.046s.367.035.557.073c.211.024.421.064.636.1l-.87-3.187-.153-.574.557.213c.255.1.511.2.765.3s.5.219.749.335.492.233.734.367l.362.193.35.2c.236.138.462.3.686.436.227.16.452.31.663.48l.324.252.306.257c.207.177.405.363.6.557l.285.277.27.3c.181.2.355.4.522.62s.321.422.471.649.3.442.429.676.261.459.376.705.219.475.327.723.181.492.262.749c.022.077.041.151.063.216h.02v-16.213c-.34,0-.7.006-1.047,0a17.35,17.35,0,0,1-2.638,6.374c-2.582,3.882-7.25-2.065-8.491-3.772-.134.031-.278.08-.414.124-.07.025-.136.053-.224.085q1.087,4.2,2.161,8.4c.2.008.674.032.834.035" transform="translate(-333.958 -2129.177)" fill="#0070bf" fill-rule="evenodd"/>
      <path id="Path_470" data-name="Path 470" d="M369.21,2153.646l-6.876,3.458c.032-.032.062-.067.1-.1.26-.248.542-.5.85-.745.155-.138.319-.251.479-.37s.337-.239.514-.351.352-.225.538-.327.373-.2.562-.305c.381-.194.776-.37,1.169-.527.2-.073.395-.137.592-.218.2-.055.393-.116.589-.181.393-.1.774-.2,1.144-.269.118-.03.229-.045.344-.064" transform="translate(-344.863 -2137.697)" fill="#0070bf" fill-rule="evenodd"/>
      <path id="Path_471" data-name="Path 471" d="M364.94,2151.518c-.427.146-.854.3-1.268.484-.2.093-.415.185-.613.29s-.4.21-.592.314-.384.234-.576.348-.365.235-.532.365c-.353.247-.67.507-.966.753-.292.261-.56.515-.8.761-.2.2-.371.4-.522.579.06-.161.123-.321.19-.475.108-.238.219-.471.337-.709.124-.221.257-.446.393-.669s.284-.435.436-.648.314-.414.483-.62.339-.386.52-.58l.274-.282.284-.265c.2-.173.389-.35.6-.516l.307-.245.317-.23c.213-.153.434-.3.652-.439s.448-.281.682-.4l.341-.189.356-.174c.236-.125.484-.23.722-.338s.491-.194.736-.294c.059-.02.119-.045.181-.062l-.886,2.957c-.136.028-.276.064-.418.1l-.632.189" transform="translate(-343.495 -2135.446)" fill="#0070bf" fill-rule="evenodd"/>
      <path id="Path_472" data-name="Path 472" d="M368.2,2144.573c-.169.008-.345.033-.524.046s-.369.035-.559.073c-.211.024-.423.064-.634.1l.864-3.187.16-.574-.556.213c-.26.1-.515.2-.769.3s-.508.219-.749.335-.494.233-.733.367l-.363.193-.347.2c-.24.138-.464.3-.694.436-.224.16-.445.31-.662.48l-.321.252-.306.257c-.207.177-.4.363-.6.557l-.279.277-.273.3c-.177.2-.355.4-.517.62s-.321.422-.476.649-.288.442-.426.676-.26.459-.375.705-.224.475-.324.723-.185.492-.265.749c-.02.077-.041.151-.059.216h-.026v-16.213c.344,0,.706.006,1.045,0a17.418,17.418,0,0,0,2.645,6.374c2.58,3.882,7.249-2.065,8.488-3.772.136.031.275.08.413.124.069.025.136.053.222.085q-1.078,4.2-2.158,8.4c-.2.008-.675.032-.838.035" transform="translate(-343.208 -2129.177)" fill="#00366c" fill-rule="evenodd"/>
      <path id="Path_473" data-name="Path 473" d="M349.124,2158.127l0,0-1.667-.267v-.547l-2.748-1.434-8.412-4.24,4.87,6.78,2.392.877,3.91,1.422,0,.269,1.656.286Z" transform="translate(-333.945 -2136.854)" fill="#0070bf" fill-rule="evenodd"/>
      <path id="Path_474" data-name="Path 474" d="M358.387,2158.127l.006,0,1.669-.267v-.547l2.744-1.434,8.412-4.24-4.867,6.78-2.392.877-3.911,1.422,0,.269-1.655.286Z" transform="translate(-343.208 -2136.854)" fill="#00366c" fill-rule="evenodd"/>
    </g>
  </g>
  <g id="Group_187" data-name="Group 187" transform="translate(59.246 7)">
    <path id="Path_475" data-name="Path 475" d="M421.736,2115.733h4.13v8.365h.08c.411-.729.846-1.4,1.258-2.077l4.18-6.288H436.5l-6.1,8.058,6.425,10.865h-4.865l-4.513-8.169-1.583,1.991v6.178h-4.13Z" transform="translate(-421.145 -2115.424)" fill="#161615"/>
    <rect id="Rectangle_848" data-name="Rectangle 848" width="4.182" height="18.922" transform="translate(17.922 0.309)" fill="#161615"/>
    <path id="Path_476" data-name="Path 476" d="M465.935,2115.881a33.6,33.6,0,0,1,5.633-.392c2.567,0,4.4.506,5.629,1.517a5.594,5.594,0,0,1,1.968,4.382,6.128,6.128,0,0,1-1.695,4.49,8.408,8.408,0,0,1-5.985,1.993,10.238,10.238,0,0,1-1.422-.084v6.765h-4.129Zm4.129,8.592a6.136,6.136,0,0,0,1.394.113c2.213,0,3.581-1.15,3.581-3.088,0-1.739-1.176-2.78-3.254-2.78a6.945,6.945,0,0,0-1.721.169Z" transform="translate(-439.675 -2115.322)" fill="#161615"/>
    <path id="Path_477" data-name="Path 477" d="M493.847,2130.026a10.414,10.414,0,0,0,4.62,1.175c1.914,0,2.924-.811,2.924-2.047,0-1.178-.873-1.851-3.086-2.668-3.065-1.095-5.058-2.832-5.058-5.584,0-3.229,2.622-5.7,6.968-5.7a11.016,11.016,0,0,1,4.7.955l-.931,3.451a8.592,8.592,0,0,0-3.853-.9c-1.806,0-2.679.842-2.679,1.825,0,1.207,1.038,1.741,3.418,2.667,3.252,1.235,4.784,2.976,4.784,5.644,0,3.171-2.379,5.868-7.437,5.868a11.8,11.8,0,0,1-5.222-1.152Z" transform="translate(-451.021 -2115.201)" fill="#161615"/>
    <path id="Path_478" data-name="Path 478" d="M426.285,2167.4h-4.179v3.98h4.655v1.194h-6.042v-11.038h5.8v1.2h-4.416v3.489h4.179Z" transform="translate(-420.719 -2134.625)" fill="#161615"/>
    <path id="Path_479" data-name="Path 479" d="M434.229,2161.625a19.353,19.353,0,0,1,2.95-.226,6.051,6.051,0,0,1,4.354,1.373,5.164,5.164,0,0,1,1.515,3.962,5.946,5.946,0,0,1-1.545,4.292,6.531,6.531,0,0,1-4.756,1.586,22.357,22.357,0,0,1-2.518-.13Zm1.386,9.76a8.71,8.71,0,0,0,1.4.082c2.968,0,4.577-1.7,4.577-4.683.014-2.6-1.421-4.259-4.353-4.259a7.631,7.631,0,0,0-1.628.149Z" transform="translate(-426.383 -2134.568)" fill="#161615"/>
    <path id="Path_480" data-name="Path 480" d="M453.887,2161.53v6.537c0,2.473,1.072,3.519,2.506,3.519,1.6,0,2.616-1.079,2.616-3.519v-6.537h1.4v6.438c0,3.389-1.739,4.784-4.067,4.784-2.2,0-3.859-1.293-3.859-4.718v-6.5Z" transform="translate(-434.036 -2134.623)" fill="#161615"/>
    <path id="Path_481" data-name="Path 481" d="M477.329,2172.082a6.721,6.721,0,0,1-2.838.525c-3.031,0-5.311-1.967-5.311-5.585a5.423,5.423,0,0,1,5.615-5.8,5.622,5.622,0,0,1,2.551.49l-.336,1.161a4.932,4.932,0,0,0-2.169-.459c-2.522,0-4.195,1.654-4.195,4.553,0,2.7,1.516,4.439,4.13,4.439a5.477,5.477,0,0,0,2.267-.458Z" transform="translate(-441.035 -2134.496)" fill="#161615"/>
    <path id="Path_482" data-name="Path 482" d="M487.463,2169.1l-1.114,3.469h-1.435l3.651-11.039h1.673l3.669,11.039h-1.483l-1.146-3.469Zm3.528-1.115-1.052-3.177c-.242-.722-.4-1.376-.562-2.017h-.032c-.158.658-.333,1.328-.54,2l-1.051,3.192Z" transform="translate(-447.631 -2134.623)" fill="#161615"/>
    <path id="Path_483" data-name="Path 483" d="M502.16,2162.743h-3.271v-1.213h7.959v1.213h-3.287v9.826h-1.4Z" transform="translate(-453.49 -2134.623)" fill="#161615"/>
    <rect id="Rectangle_849" data-name="Rectangle 849" width="1.387" height="11.037" transform="translate(54.553 26.908)" fill="#161615"/>
    <path id="Path_484" data-name="Path 484" d="M529.937,2166.81c0,3.8-2.246,5.813-4.991,5.813-2.842,0-4.831-2.262-4.831-5.6,0-3.5,2.122-5.8,4.991-5.8,2.933,0,4.831,2.31,4.831,5.586m-8.339.178c0,2.358,1.244,4.469,3.427,4.469,2.2,0,3.447-2.078,3.447-4.585,0-2.192-1.115-4.485-3.43-4.485-2.3,0-3.444,2.18-3.444,4.6" transform="translate(-462.389 -2134.495)" fill="#161615"/>
    <path id="Path_485" data-name="Path 485" d="M540.129,2172.569v-11.037h1.514l3.446,5.585a31.52,31.52,0,0,1,1.931,3.587l.03-.017c-.125-1.475-.158-2.817-.158-4.536v-4.619H548.2v11.037H546.8l-3.412-5.6a35.693,35.693,0,0,1-2.01-3.685l-.048.015c.081,1.4.114,2.719.114,4.555v4.714Z" transform="translate(-470.779 -2134.624)" fill="#161615"/>
    <path id="Path_486" data-name="Path 486" d="M421.068,2198.93a4.846,4.846,0,0,0,2.49.72c1.418,0,2.248-.77,2.248-1.886,0-1.029-.573-1.618-2.026-2.193-1.753-.637-2.837-1.571-2.837-3.126,0-1.72,1.386-3,3.475-3a4.734,4.734,0,0,1,2.375.543l-.382,1.162a4.2,4.2,0,0,0-2.041-.526c-1.468,0-2.026.9-2.026,1.656,0,1.033.655,1.542,2.137,2.128,1.82.719,2.743,1.622,2.743,3.244,0,1.7-1.226,3.176-3.762,3.176a5.474,5.474,0,0,1-2.744-.7Z" transform="translate(-420.719 -2146.327)" fill="#161615"/>
    <path id="Path_487" data-name="Path 487" d="M436.854,2200.8v-4.684l-3.4-6.356h1.581l1.514,3.046c.414.836.733,1.508,1.067,2.279h.031c.307-.72.672-1.444,1.085-2.279l1.548-3.046h1.577l-3.6,6.339v4.7Z" transform="translate(-426.059 -2146.457)" fill="#161615"/>
    <path id="Path_488" data-name="Path 488" d="M449.1,2198.93a4.829,4.829,0,0,0,2.489.72c1.419,0,2.247-.77,2.247-1.886,0-1.029-.576-1.618-2.025-2.193-1.754-.637-2.84-1.571-2.84-3.126,0-1.72,1.39-3,3.476-3a4.743,4.743,0,0,1,2.377.543l-.382,1.162a4.2,4.2,0,0,0-2.042-.526c-1.466,0-2.023.9-2.023,1.656,0,1.033.653,1.542,2.136,2.128,1.817.719,2.744,1.622,2.744,3.244,0,1.7-1.227,3.176-3.765,3.176a5.471,5.471,0,0,1-2.742-.7Z" transform="translate(-432.472 -2146.327)" fill="#161615"/>
    <path id="Path_489" data-name="Path 489" d="M464.377,2190.969h-3.27v-1.215h7.958v1.215H465.78v9.825h-1.4Z" transform="translate(-437.651 -2146.456)" fill="#161615"/>
    <path id="Path_490" data-name="Path 490" d="M482.436,2195.617h-4.18v3.982h4.659v1.2h-6.046v-11.04h5.8v1.2h-4.417v3.487h4.18Z" transform="translate(-444.259 -2146.456)" fill="#161615"/>
    <path id="Path_491" data-name="Path 491" d="M499.229,2195.948c-.078-1.541-.177-3.392-.159-4.767h-.049c-.366,1.294-.812,2.671-1.354,4.194l-1.9,5.352h-1.054l-1.734-5.255c-.512-1.554-.945-2.978-1.247-4.292h-.03c-.031,1.375-.114,3.227-.209,4.883l-.288,4.733h-1.322l.749-11.041H492.4l1.835,5.342c.447,1.359.811,2.572,1.086,3.717h.044c.271-1.115.656-2.325,1.137-3.717l1.913-5.342h1.77l.669,11.041H499.5Z" transform="translate(-449.714 -2146.456)" fill="#161615"/>
  </g>
</svg>
